<mxfile host="app.diagrams.net" modified="2024-04-30T13:22:18.789Z" agent="Mozilla/5.0 (Windows NT 10.0; Win64; x64) AppleWebKit/537.36 (KHTML, like Gecko) Chrome/124.0.0.0 Safari/537.36" etag="UbAdtcxDQnDsWDtNQmg7" version="24.3.1" type="github">
  <diagram name="Page-1" id="t4HRLm75Le_mxX46TRCD">
    <mxGraphModel dx="819" dy="470" grid="1" gridSize="10" guides="1" tooltips="1" connect="1" arrows="1" fold="1" page="1" pageScale="1" pageWidth="850" pageHeight="1100" math="0" shadow="0">
      <root>
        <mxCell id="0" />
        <mxCell id="1" parent="0" />
        <mxCell id="SE2qRpJzuq0Dq6JYVyxK-28" value="" style="rounded=0;whiteSpace=wrap;html=1;fillColor=none;movable=1;resizable=1;rotatable=1;deletable=1;editable=1;locked=0;connectable=1;" parent="1" vertex="1">
          <mxGeometry x="110" y="110" width="540" height="440" as="geometry" />
        </mxCell>
        <mxCell id="yEffb6zgSFN-hBcuX7Nb-13" style="rounded=0;orthogonalLoop=1;jettySize=auto;html=1;exitX=0.75;exitY=0.1;exitDx=0;exitDy=0;exitPerimeter=0;entryX=0;entryY=0.5;entryDx=0;entryDy=0;endArrow=none;endFill=0;" parent="1" source="yEffb6zgSFN-hBcuX7Nb-1" target="yEffb6zgSFN-hBcuX7Nb-4" edge="1">
          <mxGeometry relative="1" as="geometry" />
        </mxCell>
        <mxCell id="yEffb6zgSFN-hBcuX7Nb-14" style="rounded=0;orthogonalLoop=1;jettySize=auto;html=1;exitX=1;exitY=1;exitDx=0;exitDy=0;exitPerimeter=0;entryX=0;entryY=0.5;entryDx=0;entryDy=0;endArrow=none;endFill=0;" parent="1" source="yEffb6zgSFN-hBcuX7Nb-1" target="yEffb6zgSFN-hBcuX7Nb-6" edge="1">
          <mxGeometry relative="1" as="geometry" />
        </mxCell>
        <mxCell id="yEffb6zgSFN-hBcuX7Nb-1" value="Users" style="shape=umlActor;verticalLabelPosition=bottom;verticalAlign=top;html=1;" parent="1" vertex="1">
          <mxGeometry x="50" y="280" width="30" height="60" as="geometry" />
        </mxCell>
        <mxCell id="yEffb6zgSFN-hBcuX7Nb-3" value="Perform Calculation" style="ellipse;whiteSpace=wrap;html=1;" parent="1" vertex="1">
          <mxGeometry x="530" y="200" width="100" height="50" as="geometry" />
        </mxCell>
        <mxCell id="yEffb6zgSFN-hBcuX7Nb-15" style="rounded=0;orthogonalLoop=1;jettySize=auto;html=1;exitX=1;exitY=0;exitDx=0;exitDy=0;dashed=1;entryX=0.02;entryY=0.593;entryDx=0;entryDy=0;entryPerimeter=0;" parent="1" source="yEffb6zgSFN-hBcuX7Nb-4" target="yEffb6zgSFN-hBcuX7Nb-5" edge="1">
          <mxGeometry relative="1" as="geometry">
            <mxPoint x="420" y="140" as="targetPoint" />
          </mxGeometry>
        </mxCell>
        <mxCell id="yEffb6zgSFN-hBcuX7Nb-18" value="&amp;lt;&amp;lt;extends&amp;gt;&amp;gt;" style="edgeLabel;html=1;align=center;verticalAlign=middle;resizable=0;points=[];fontSize=9;" parent="yEffb6zgSFN-hBcuX7Nb-15" vertex="1" connectable="0">
          <mxGeometry x="-0.3554" relative="1" as="geometry">
            <mxPoint x="14" y="-2" as="offset" />
          </mxGeometry>
        </mxCell>
        <mxCell id="yEffb6zgSFN-hBcuX7Nb-4" value="View Calculation History" style="ellipse;whiteSpace=wrap;html=1;" parent="1" vertex="1">
          <mxGeometry x="160" y="170" width="100" height="50" as="geometry" />
        </mxCell>
        <mxCell id="yEffb6zgSFN-hBcuX7Nb-5" value="Delete History" style="ellipse;whiteSpace=wrap;html=1;" parent="1" vertex="1">
          <mxGeometry x="360" y="150" width="100" height="50" as="geometry" />
        </mxCell>
        <mxCell id="yEffb6zgSFN-hBcuX7Nb-16" style="rounded=0;orthogonalLoop=1;jettySize=auto;html=1;exitX=1;exitY=0.5;exitDx=0;exitDy=0;entryX=0;entryY=0.5;entryDx=0;entryDy=0;dashed=1;" parent="1" source="yEffb6zgSFN-hBcuX7Nb-6" target="yEffb6zgSFN-hBcuX7Nb-7" edge="1">
          <mxGeometry relative="1" as="geometry" />
        </mxCell>
        <mxCell id="yEffb6zgSFN-hBcuX7Nb-19" value="&amp;lt;&amp;lt;extends&amp;gt;&amp;gt;" style="edgeLabel;html=1;align=center;verticalAlign=middle;resizable=0;points=[];fontSize=9;" parent="yEffb6zgSFN-hBcuX7Nb-16" vertex="1" connectable="0">
          <mxGeometry x="0.1933" y="-2" relative="1" as="geometry">
            <mxPoint x="-19" y="-2" as="offset" />
          </mxGeometry>
        </mxCell>
        <mxCell id="yEffb6zgSFN-hBcuX7Nb-17" style="rounded=0;orthogonalLoop=1;jettySize=auto;html=1;exitX=1;exitY=1;exitDx=0;exitDy=0;entryX=0;entryY=0.5;entryDx=0;entryDy=0;dashed=1;" parent="1" source="yEffb6zgSFN-hBcuX7Nb-6" target="yEffb6zgSFN-hBcuX7Nb-8" edge="1">
          <mxGeometry relative="1" as="geometry" />
        </mxCell>
        <mxCell id="yEffb6zgSFN-hBcuX7Nb-20" value="&amp;lt;&amp;lt;extends&amp;gt;&amp;gt;" style="edgeLabel;html=1;align=center;verticalAlign=middle;resizable=0;points=[];fontSize=9;" parent="yEffb6zgSFN-hBcuX7Nb-17" vertex="1" connectable="0">
          <mxGeometry x="0.0936" y="-1" relative="1" as="geometry">
            <mxPoint as="offset" />
          </mxGeometry>
        </mxCell>
        <mxCell id="yEffb6zgSFN-hBcuX7Nb-22" style="rounded=0;orthogonalLoop=1;jettySize=auto;html=1;exitX=0.5;exitY=1;exitDx=0;exitDy=0;entryX=0;entryY=0.5;entryDx=0;entryDy=0;dashed=1;" parent="1" source="yEffb6zgSFN-hBcuX7Nb-6" target="yEffb6zgSFN-hBcuX7Nb-21" edge="1">
          <mxGeometry relative="1" as="geometry" />
        </mxCell>
        <mxCell id="yEffb6zgSFN-hBcuX7Nb-23" value="&amp;lt;&amp;lt;extends&amp;gt;&amp;gt;" style="edgeLabel;html=1;align=center;verticalAlign=middle;resizable=0;points=[];fontSize=9;" parent="yEffb6zgSFN-hBcuX7Nb-22" vertex="1" connectable="0">
          <mxGeometry x="-0.2" y="-4" relative="1" as="geometry">
            <mxPoint as="offset" />
          </mxGeometry>
        </mxCell>
        <mxCell id="yEffb6zgSFN-hBcuX7Nb-6" value="Get Help" style="ellipse;whiteSpace=wrap;html=1;" parent="1" vertex="1">
          <mxGeometry x="180" y="360" width="100" height="50" as="geometry" />
        </mxCell>
        <mxCell id="yEffb6zgSFN-hBcuX7Nb-7" value="FAQ" style="ellipse;whiteSpace=wrap;html=1;" parent="1" vertex="1">
          <mxGeometry x="380" y="360" width="100" height="50" as="geometry" />
        </mxCell>
        <mxCell id="yEffb6zgSFN-hBcuX7Nb-8" value="Tutorial" style="ellipse;whiteSpace=wrap;html=1;" parent="1" vertex="1">
          <mxGeometry x="410" y="450" width="100" height="50" as="geometry" />
        </mxCell>
        <mxCell id="yEffb6zgSFN-hBcuX7Nb-21" value="Report Error" style="ellipse;whiteSpace=wrap;html=1;" parent="1" vertex="1">
          <mxGeometry x="230" y="480" width="100" height="50" as="geometry" />
        </mxCell>
        <mxCell id="SE2qRpJzuq0Dq6JYVyxK-18" style="edgeStyle=none;curved=1;rounded=0;orthogonalLoop=1;jettySize=auto;html=1;entryX=-0.018;entryY=0.591;entryDx=0;entryDy=0;entryPerimeter=0;fontSize=12;startSize=8;endSize=8;dashed=1;" parent="1" source="SE2qRpJzuq0Dq6JYVyxK-21" target="yEffb6zgSFN-hBcuX7Nb-3" edge="1">
          <mxGeometry relative="1" as="geometry" />
        </mxCell>
        <mxCell id="SE2qRpJzuq0Dq6JYVyxK-24" value="&amp;lt;&amp;lt;include&amp;gt;&amp;gt;" style="edgeLabel;html=1;align=center;verticalAlign=middle;resizable=0;points=[];fontSize=9;" parent="SE2qRpJzuq0Dq6JYVyxK-18" vertex="1" connectable="0">
          <mxGeometry x="-0.2787" y="1" relative="1" as="geometry">
            <mxPoint as="offset" />
          </mxGeometry>
        </mxCell>
        <mxCell id="SE2qRpJzuq0Dq6JYVyxK-20" value="" style="edgeStyle=none;curved=1;rounded=0;orthogonalLoop=1;jettySize=auto;html=1;entryX=-0.004;entryY=0.7;entryDx=0;entryDy=0;entryPerimeter=0;fontSize=12;startSize=8;endSize=8;endArrow=none;endFill=0;" parent="1" source="yEffb6zgSFN-hBcuX7Nb-1" target="SE2qRpJzuq0Dq6JYVyxK-19" edge="1">
          <mxGeometry relative="1" as="geometry">
            <mxPoint x="120" y="309" as="sourcePoint" />
            <mxPoint x="375" y="295" as="targetPoint" />
          </mxGeometry>
        </mxCell>
        <mxCell id="SE2qRpJzuq0Dq6JYVyxK-19" value="Shape&lt;div&gt;selection&lt;/div&gt;" style="ellipse;whiteSpace=wrap;html=1;" parent="1" vertex="1">
          <mxGeometry x="170" y="270" width="100" height="50" as="geometry" />
        </mxCell>
        <mxCell id="SE2qRpJzuq0Dq6JYVyxK-22" value="" style="edgeStyle=none;curved=1;rounded=0;orthogonalLoop=1;jettySize=auto;html=1;entryX=-0.014;entryY=0.605;entryDx=0;entryDy=0;entryPerimeter=0;fontSize=12;startSize=8;endSize=8;dashed=1;" parent="1" source="SE2qRpJzuq0Dq6JYVyxK-19" target="SE2qRpJzuq0Dq6JYVyxK-21" edge="1">
          <mxGeometry relative="1" as="geometry">
            <mxPoint x="270" y="294" as="sourcePoint" />
            <mxPoint x="470" y="290" as="targetPoint" />
          </mxGeometry>
        </mxCell>
        <mxCell id="SE2qRpJzuq0Dq6JYVyxK-23" value="&amp;lt;&amp;lt;include&amp;gt;&amp;gt;" style="edgeLabel;html=1;align=center;verticalAlign=middle;resizable=0;points=[];fontSize=9;" parent="SE2qRpJzuq0Dq6JYVyxK-22" vertex="1" connectable="0">
          <mxGeometry x="-0.2451" y="-1" relative="1" as="geometry">
            <mxPoint x="10" as="offset" />
          </mxGeometry>
        </mxCell>
        <mxCell id="SE2qRpJzuq0Dq6JYVyxK-21" value="Input parameters" style="ellipse;whiteSpace=wrap;html=1;" parent="1" vertex="1">
          <mxGeometry x="370" y="270" width="100" height="50" as="geometry" />
        </mxCell>
        <mxCell id="SE2qRpJzuq0Dq6JYVyxK-25" value="show result" style="ellipse;whiteSpace=wrap;html=1;" parent="1" vertex="1">
          <mxGeometry x="530" y="330" width="100" height="50" as="geometry" />
        </mxCell>
        <mxCell id="SE2qRpJzuq0Dq6JYVyxK-26" style="edgeStyle=none;curved=1;rounded=0;orthogonalLoop=1;jettySize=auto;html=1;entryX=0.5;entryY=0;entryDx=0;entryDy=0;fontSize=12;startSize=8;endSize=8;dashed=1;" parent="1" source="yEffb6zgSFN-hBcuX7Nb-3" target="SE2qRpJzuq0Dq6JYVyxK-25" edge="1">
          <mxGeometry relative="1" as="geometry" />
        </mxCell>
        <mxCell id="SE2qRpJzuq0Dq6JYVyxK-27" value="&amp;lt;&amp;lt;include&amp;gt;&amp;gt;" style="edgeLabel;html=1;align=center;verticalAlign=middle;resizable=0;points=[];fontSize=9;" parent="SE2qRpJzuq0Dq6JYVyxK-26" vertex="1" connectable="0">
          <mxGeometry x="-0.2869" relative="1" as="geometry">
            <mxPoint as="offset" />
          </mxGeometry>
        </mxCell>
        <mxCell id="wsUY2CuCwgpk7COCoHRM-1" value="Shape Calculator" style="text;html=1;align=center;verticalAlign=middle;resizable=0;points=[];autosize=1;strokeColor=none;fillColor=none;fontSize=16;fontStyle=1" vertex="1" parent="1">
          <mxGeometry x="300" y="110" width="150" height="30" as="geometry" />
        </mxCell>
      </root>
    </mxGraphModel>
  </diagram>
</mxfile>
